<?xml version="1.0" standalone="no"?>
<!DOCTYPE svg PUBLIC "-//W3C//DTD SVG 20010904//EN"
 "http://www.w3.org/TR/2001/REC-SVG-20010904/DTD/svg10.dtd">
<svg version="1.0" xmlns="http://www.w3.org/2000/svg"
 width="429.000000pt" height="117.000000pt" viewBox="0 0 429.000000 117.000000"
 preserveAspectRatio="xMidYMid meet">
<metadata>
Created by potrace 1.16, written by Peter Selinger 2001-2019
</metadata>
<g transform="translate(0.000000,117.000000) scale(0.100000,-0.100000)"
fill="#000000" stroke="none">
<path d="M2740 595 c0 -69 3 -85 15 -85 10 0 15 10 15 30 0 27 3 30 33 30 25
0 39 -7 55 -30 13 -16 29 -30 37 -30 19 0 19 14 0 30 -19 16 -19 30 1 45 22
16 21 65 -2 82 -11 8 -45 13 -86 13 l-68 0 0 -85z"/>
</g>
</svg>
