<?xml version="1.0" standalone="no"?>
<!DOCTYPE svg PUBLIC "-//W3C//DTD SVG 20010904//EN"
 "http://www.w3.org/TR/2001/REC-SVG-20010904/DTD/svg10.dtd">
<svg version="1.0" xmlns="http://www.w3.org/2000/svg"
 width="240.000000pt" height="160.000000pt" viewBox="0 0 240.000000 160.000000"
 preserveAspectRatio="xMidYMid meet">
<metadata>
Created by potrace 1.16, written by Peter Selinger 2001-2019
</metadata>
<g transform="translate(0.000000,160.000000) scale(0.100000,-0.100000)"
fill="#000000" stroke="none">
<path d="M0 800 l0 -800 1200 0 1200 0 0 800 0 800 -1200 0 -1200 0 0 -800z
m1648 587 c6 -7 12 -37 14 -66 l3 -53 100 -1 100 -2 3 -342 2 -343 -644 0
c-546 0 -645 2 -649 14 -7 18 -8 642 -1 660 4 11 32 14 117 13 l112 -1 3 55
c1 30 5 60 7 67 6 18 818 18 833 -1z m325 -1017 c34 -92 57 -170 55 -187 l-3
-28 -825 0 -825 0 -3 30 c-3 22 17 73 74 188 l79 157 695 0 695 0 58 -160z"/>
<path d="M783 1207 c-23 -10 -23 -12 -23 -223 0 -207 1 -214 23 -239 l22 -26
425 -6 425 -6 20 23 c19 21 20 37 21 244 2 214 -1 235 -28 236 -5 0 -8 -8 -8
-18 0 -14 -43 -35 -196 -97 -166 -67 -199 -77 -215 -67 -12 8 -26 9 -37 4 -12
-6 -73 13 -209 67 -158 63 -193 80 -195 97 -3 18 -6 20 -25 11z"/>
<path d="M570 430 c-11 -21 -20 -44 -20 -50 0 -7 210 -10 660 -10 l660 0 -19
48 -19 47 -621 3 -621 2 -20 -40z"/>
</g>
</svg>
